# xmcd
#
# Track frame offsets: 
#        150
#        33827
#        63670
#        100717
#        141220
#        172797
#        209665
#        256510
#        285102
#        306597
#        314390
#
# Disc length: 4379 seconds
#
# Revision: 0
# Processed by: cddbd v1.5.2PL0 Copyright (c) Steve Scherf et al.
# Submitted via: ExactAudioCopy v1.0b3
#
DISCID=9311190b
DTITLE=Jean Martinon - Orchestre National De L'ORTF - Debussy: Orchestr
DTITLE=al Works
DYEAR=1973
DGENRE=Classical Orchestral
TTITLE0=夜想曲:I.雲
TTITLE1=夜想曲:II.祭
TTITLE2=夜想曲:III.海の精
TTITLE3=交響詩「海」:海上の夜明けから正午まで
TTITLE4=交響詩「海」:波の戯れ
TTITLE5=交響詩「海」:風と海の対話
TTITLE6=牧神の午後への前奏曲
TTITLE7=を主題とした「スコットランド風行進曲」
TTITLE8=英雄的子守歌
TTITLE9=劇附随音楽「リア王」:ファンファーレ
TTITLE10=劇附随音楽「リア王」:リア王の眠り
EXTD=
EXTT0=
EXTT1=
EXTT2=
EXTT3=
EXTT4=
EXTT5=
EXTT6=
EXTT7=
EXTT8=
EXTT9=
EXTT10=
PLAYORDER=
